<?xml version="1.0" encoding="UTF-8"?>
<svg version="1.1" viewBox="0 0 16 16" xmlns="http://www.w3.org/2000/svg" xmlns:cc="http://creativecommons.org/ns#" xmlns:dc="http://purl.org/dc/elements/1.1/" xmlns:rdf="http://www.w3.org/1999/02/22-rdf-syntax-ns#">
<metadata>
<rdf:RDF>
<cc:Work rdf:about="">
<dc:format>image/svg+xml</dc:format>
<dc:type rdf:resource="http://purl.org/dc/dcmitype/StillImage"/>
<dc:title>Gnome Symbolic Icon Theme</dc:title>
</cc:Work>
</rdf:RDF>
</metadata>
<title>Gnome Symbolic Icon Theme</title>
<g transform="translate(-381,-277)" fill="#bebebe">
<path d="m390.51 277.04c-1.273 0-2.307 0.9731-2.448 2.219-0.32401-0.12209-0.65635-0.21877-1.0226-0.21877-1.6429 0-2.9748 1.3433-2.9748 3.0003 0 0.0982 0.0219 0.18552 0.0309 0.28128-0.29709-0.17926-0.65102-0.28128-1.0225-0.28128-1.0953 0-1.9832 0.89552-1.9832 2.0002s0.81558 1.9558 1.9109 1.9558h5v-1.5c-0.0163-0.7855 0.73891-1.4709 1.5177-1.4872 0.79948-0.0169 1.499 0.68082 1.4823 1.4872v1.5h4.5c0.82146 0 1.4548-0.62724 1.4548-1.4558s-0.66593-1.5001-1.4874-1.5001c-0.20538 0-0.41082 0.0491-0.58878 0.12501 0.0521-0.20196 0.0929-0.40662 0.0929-0.62506 0-1.2295-0.88584-2.2284-2.0452-2.4377 0.0416-0.18137 0.062-0.36846 0.062-0.56255 0-1.3808-1.1099-2.5002-2.479-2.5002z" color="#000000"/>
<path d="m389.41 284a0.49935 0.49935 0 0 0 -0.40625 0.5v2.5h-2.5-0.5v0.5 0.5h-1.5-0.21875l-0.125 0.15625-2.5 2.5a0.49935 0.49935 0 1 0 0.6875 0.6875l2.3438-2.3438h1.3125v3a0.5 0.5 0 0 0 1 0v-3.375a0.49935 0.49935 0 0 0 0 -0.21875v-0.40625h2v0.5 0.21875l0.15625 0.125 1.8438 1.8438v1.3125a0.5 0.5 0 0 0 1 0v-1h1.3438l2.4062 1.4375a0.50389 0.50389 0 1 0 0.5 -0.875l-2.5-1.5-0.125-0.0625h-0.125-1.8125l-1.6875-1.6875v-0.6875a0.49935 0.49935 0 0 0 0 -0.21875v-2.9062a0.49935 0.49935 0 0 0 -0.59375 -0.5z" color="#000000" enable-background="new" style="block-progression:tb;text-indent:0;text-transform:none"/>
</g>
</svg>
