<?xml version="1.0" encoding="UTF-8"?>
<svg version="1.1" viewBox="0 0 16 16" xmlns="http://www.w3.org/2000/svg" xmlns:cc="http://creativecommons.org/ns#" xmlns:dc="http://purl.org/dc/elements/1.1/" xmlns:osb="http://www.openswatchbook.org/uri/2009/osb" xmlns:rdf="http://www.w3.org/1999/02/22-rdf-syntax-ns#">
<metadata>
<rdf:RDF>
<cc:Work rdf:about="">
<dc:format>image/svg+xml</dc:format>
<dc:type rdf:resource="http://purl.org/dc/dcmitype/StillImage"/>
<dc:title>Gnome Symbolic Icon Theme</dc:title>
</cc:Work>
</rdf:RDF>
</metadata>
<title>Gnome Symbolic Icon Theme</title>
<g transform="translate(-221,-277)" fill="#bebebe">
<path d="m227.81 278.11c-3.2956 0.56457-5.8223 3.4408-5.8223 6.8926 0 3.8542 3.1478 7 7.002 7 1.7505 0 3.3501-0.65308 4.5801-1.7227-3.7754-0.98237-6.582-4.4177-6.582-8.4922 0-1.3141 0.30056-2.5563 0.82226-3.6777z" color="#bebebe" enable-background="new" style="text-decoration-line:none;text-indent:0;text-transform:none"/>
<path d="m228.99 278c-0.40239 0-0.7955 0.0416-1.1797 0.10742-0.5217 1.1215-0.82226 2.3636-0.82226 3.6777 0 4.0745 2.8066 7.5098 6.582 8.4922 1.4781-1.2854 2.4199-3.1737 2.4199-5.2773 0-3.8542-3.1458-7-7-7z" color="#bebebe" enable-background="new" opacity=".35" style="text-decoration-line:none;text-indent:0;text-transform:none"/>
</g>
</svg>
