<?xml version="1.0" encoding="UTF-8"?>
<svg version="1.1" viewBox="0 0 16 16" xmlns="http://www.w3.org/2000/svg" xmlns:cc="http://creativecommons.org/ns#" xmlns:dc="http://purl.org/dc/elements/1.1/" xmlns:rdf="http://www.w3.org/1999/02/22-rdf-syntax-ns#">
<metadata>
<rdf:RDF>
<cc:Work rdf:about="">
<dc:format>image/svg+xml</dc:format>
<dc:type rdf:resource="http://purl.org/dc/dcmitype/StillImage"/>
<dc:title>Gnome Symbolic Icon Theme</dc:title>
</cc:Work>
</rdf:RDF>
</metadata>
<title>Gnome Symbolic Icon Theme</title>
<g transform="translate(-241,-277)" fill="#bebebe">
<path d="m250.54 277c-1.2767 0-2.3137 0.97301-2.4551 2.2188-0.32495-0.12208-0.65825-0.21875-1.0255-0.21875-1.6477 0-2.9834 1.3432-2.9834 3 0 0.0982 0.022 0.1855 0.031 0.28125-0.29795-0.17924-0.6529-0.28125-1.0255-0.28125-1.0985 0-1.9889 0.89543-1.9889 2s0.89047 2 1.9889 2h1.0255a1.4918 1.5002 0 0 1 1.8025 -1.9062 1.4918 1.5002 0 0 1 0.031 0 1.4918 1.5002 0 0 1 1.3363 -0.4375 1.4918 1.5002 0 0 1 0.83908 -0.59375 1.4918 1.5002 0 0 1 1.3985 -1.0938 1.4918 1.5002 0 0 1 1.4606 1.0938 1.4918 1.5002 0 0 1 0.83908 0.59375 1.4918 1.5002 0 0 1 1.3985 0.40625 1.4918 1.5002 0 0 1 1.7714 1.9375h0.52831c0.82384 0 1.4917-0.67157 1.4917-1.5s-0.66785-1.5-1.4917-1.5c-0.20597 0-0.412 0.0491-0.59047 0.125 0.0523-0.20194 0.0932-0.40658 0.0932-0.625 0-1.2294-0.88839-2.2282-2.0511-2.4375 0.0417-0.18136 0.0622-0.36843 0.0622-0.5625 0-1.3807-1.1131-2.5-2.4862-2.5z" color="#000000"/>
<path d="m249.44 282.94a0.50005 0.50005 0 0 0 -0.4375 0.53125v0.65625l-0.28125-0.125a0.50316 0.50316 0 1 0 -0.4375 0.90625l0.71875 0.34375v1.8125l-1.6562-1.0312 0.0625-0.875a0.50219 0.50219 0 1 0 -1 -0.0937l-0.0312 0.40625-0.59375-0.375a0.50005 0.50005 0 1 0 -0.5313 0.8437l0.65625 0.40625-0.3125 0.25a0.50316 0.50316 0 1 0 0.59375 0.8125l0.65625-0.5 1.6875 1.0312-1.7188 1.0625-0.65625-0.46875a0.50005 0.50005 0 1 0 -0.59375 0.78125l0.34375 0.25-0.6875 0.40625a0.51182 0.51182 0 1 0 0.53125 0.875l0.625-0.375 0.0312 0.375a0.50098 0.50098 0 1 0 1 -0.0625l-0.0625-0.90625 1.6562-1.0312v1.8125l-0.7187 0.34375a0.50316 0.50316 0 1 0 0.4375 0.90625l0.28125-0.125v0.6875a0.50005 0.50005 0 1 0 1 0v-0.6875l0.28125 0.125a0.50316 0.50316 0 1 0 0.4375 -0.90625l-0.71875-0.34375v-1.8125l1.6562 1-0.0625 0.9375a0.50024 0.50024 0 1 0 1 0.0312l0.0312-0.375 0.59375 0.375a0.50005 0.50005 0 1 0 0.53125 -0.84375l-0.6875-0.40625 0.34375-0.25a0.50316 0.50316 0 1 0 -0.5937 -0.81245l-0.65625 0.5-1.6875-1.0312 1.6875-1.0312 0.6875 0.46875a0.50005 0.50005 0 1 0 0.5625 -0.8125l-0.3125-0.21875 0.6875-0.4375a0.51182 0.51182 0 1 0 -0.53125 -0.875l-0.625 0.375-0.0312-0.375a0.50098 0.50098 0 1 0 -1 0.0625l0.0625 0.90625-1.6562 1.0312v-1.8125l0.71875-0.34375a0.50316 0.50316 0 1 0 -0.43755 -0.90625l-0.28125 0.125v-0.65625a0.50005 0.50005 0 0 0 -0.5625 -0.53125z" color="#000000" style="block-progression:tb;text-indent:0;text-transform:none"/>
</g>
</svg>
